<svg xmlns="http://www.w3.org/2000/svg" xmlns:xlink="http://www.w3.org/1999/xlink" contentStyleType="text/css" data-diagram-type="CLASS" height="720px" preserveAspectRatio="none" style="width:1179px;height:720px;background:#FFFFFF;" version="1.1" viewBox="0 0 1179 720" width="1179px" zoomAndPan="magnify"><defs/><g><!--class GatewayConfigProperties--><g class="entity" data-entity="GatewayConfigProperties" data-source-line="7" data-uid="ent0002" id="entity_GatewayConfigProperties"><rect fill="#FFFFFF" height="112.0586" rx="2.5" ry="2.5" style="stroke:#000000;stroke-width:1;" width="353.5645" x="666.8" y="71.56"/><ellipse cx="751.4162" cy="85.56" fill="#FFFFFF" rx="9" ry="9" style="stroke:#000000;stroke-width:1;"/><path d="M753.8894,91.7031 Q753.3083,92.0019 752.6691,92.1513 Q752.03,92.3007 751.3244,92.3007 Q748.8176,92.3007 747.4978,90.6489 Q746.1779,88.997 746.1779,85.8759 Q746.1779,82.7465 747.4978,81.0947 Q748.8176,79.4428 751.3244,79.4428 Q752.03,79.4428 752.6774,79.5922 Q753.3249,79.7416 753.8894,80.0405 L753.8894,82.7631 Q753.2585,82.1821 752.665,81.9123 Q752.0715,81.6425 751.4406,81.6425 Q750.0959,81.6425 749.4111,82.7092 Q748.7263,83.7758 748.7263,85.8759 Q748.7263,87.9677 749.4111,89.0344 Q750.0959,90.101 751.4406,90.101 Q752.0715,90.101 752.665,89.8312 Q753.2585,89.5615 753.8894,88.9804 Z " fill="#000000"/><text fill="#000000" font-family="Verdana" font-size="14" lengthAdjust="spacing" textLength="176.832" x="768.9162" y="91.1279">GatewayConfigProperties</text><line style="stroke:#000000;stroke-width:1;" x1="667.8" x2="1019.3645" y1="99.56" y2="99.56"/><text fill="#000000" font-family="Verdana" font-size="14" lengthAdjust="spacing" textLength="310.8848" x="672.8" y="117.6352">+Map&lt;String, List&lt;String&gt;&gt; rolesMappings</text><text fill="#000000" font-family="Verdana" font-size="14" lengthAdjust="spacing" textLength="239.2646" x="672.8" y="134.6498">+HeaderMappings defaultHeaders</text><text fill="#000000" font-family="Verdana" font-size="14" lengthAdjust="spacing" textLength="341.5645" x="672.8" y="151.6645">+List&lt;RoleBasedAccessRule&gt; globalAccessRules</text><text fill="#000000" font-family="Verdana" font-size="14" lengthAdjust="spacing" textLength="229.0313" x="672.8" y="168.6791">+Map&lt;String, Service&gt; services</text><line style="stroke:#000000;stroke-width:1;" x1="667.8" x2="1019.3645" y1="175.6186" y2="175.6186"/></g><!--class Service--><g class="entity" data-entity="Service" data-source-line="14" data-uid="ent0003" id="entity_Service"><rect fill="#FFFFFF" height="95.0439" rx="2.5" ry="2.5" style="stroke:#000000;stroke-width:1;" width="310.3682" x="688.39" y="306.67"/><ellipse cx="814.0013" cy="320.67" fill="#FFFFFF" rx="9" ry="9" style="stroke:#000000;stroke-width:1;"/><path d="M816.4745,326.8131 Q815.8934,327.1119 815.2543,327.2613 Q814.6151,327.4107 813.9095,327.4107 Q811.4027,327.4107 810.0829,325.7589 Q808.763,324.107 808.763,320.9859 Q808.763,317.8565 810.0829,316.2047 Q811.4027,314.5528 813.9095,314.5528 Q814.6151,314.5528 815.2626,314.7022 Q815.91,314.8516 816.4745,315.1505 L816.4745,317.8731 Q815.8436,317.2921 815.2501,317.0223 Q814.6566,316.7525 814.0257,316.7525 Q812.681,316.7525 811.9962,317.8192 Q811.3114,318.8858 811.3114,320.9859 Q811.3114,323.0777 811.9962,324.1444 Q812.681,325.211 814.0257,325.211 Q814.6566,325.211 815.2501,324.9412 Q815.8436,324.6715 816.4745,324.0904 Z " fill="#000000"/><text fill="#000000" font-family="Verdana" font-size="14" lengthAdjust="spacing" textLength="51.6455" x="831.5013" y="326.2379">Service</text><line style="stroke:#000000;stroke-width:1;" x1="689.39" x2="997.7582" y1="334.67" y2="334.67"/><text fill="#000000" font-family="Verdana" font-size="14" lengthAdjust="spacing" textLength="84.7314" x="694.39" y="352.7452">+URI target</text><text fill="#000000" font-family="Verdana" font-size="14" lengthAdjust="spacing" textLength="188.9932" x="694.39" y="369.7598">+HeaderMappings headers</text><text fill="#000000" font-family="Verdana" font-size="14" lengthAdjust="spacing" textLength="298.3682" x="694.39" y="386.7745">+List&lt;RoleBasedAccessRule&gt; accessRules</text><line style="stroke:#000000;stroke-width:1;" x1="689.39" x2="997.7582" y1="393.7139" y2="393.7139"/></g><!--class HeaderMappings--><g class="entity" data-entity="HeaderMappings" data-source-line="20" data-uid="ent0004" id="entity_HeaderMappings"><rect fill="#FFFFFF" height="248.1758" rx="2.5" ry="2.5" style="stroke:#000000;stroke-width:1;" width="284.8154" x="535.17" y="465.22"/><ellipse cx="615.4898" cy="479.22" fill="#FFFFFF" rx="9" ry="9" style="stroke:#000000;stroke-width:1;"/><path d="M617.963,485.3631 Q617.3819,485.6619 616.7428,485.8113 Q616.1036,485.9607 615.398,485.9607 Q612.8912,485.9607 611.5714,484.3089 Q610.2515,482.657 610.2515,479.5359 Q610.2515,476.4065 611.5714,474.7547 Q612.8912,473.1028 615.398,473.1028 Q616.1036,473.1028 616.7511,473.2522 Q617.3985,473.4016 617.963,473.7005 L617.963,476.4231 Q617.3321,475.8421 616.7386,475.5723 Q616.1451,475.3025 615.5142,475.3025 Q614.1695,475.3025 613.4847,476.3692 Q612.7999,477.4358 612.7999,479.5359 Q612.7999,481.6277 613.4847,482.6944 Q614.1695,483.761 615.5142,483.761 Q616.1451,483.761 616.7386,483.4912 Q617.3321,483.2215 617.963,482.6404 Z " fill="#000000"/><text fill="#000000" font-family="Verdana" font-size="14" lengthAdjust="spacing" textLength="116.6758" x="632.9898" y="484.7879">HeaderMappings</text><line style="stroke:#000000;stroke-width:1;" x1="536.17" x2="818.9854" y1="493.22" y2="493.22"/><text fill="#000000" font-family="Verdana" font-size="14" lengthAdjust="spacing" textLength="193.8057" x="541.17" y="511.2952">+Optional&lt;Boolean&gt; proxy</text><text fill="#000000" font-family="Verdana" font-size="14" lengthAdjust="spacing" textLength="197.0732" x="541.17" y="528.3098">+Optional&lt;Boolean&gt; userid</text><text fill="#000000" font-family="Verdana" font-size="14" lengthAdjust="spacing" textLength="223.7334" x="541.17" y="545.3245">+Optional&lt;Boolean&gt; username</text><text fill="#000000" font-family="Verdana" font-size="14" lengthAdjust="spacing" textLength="187.9883" x="541.17" y="562.3391">+Optional&lt;Boolean&gt; roles</text><text fill="#000000" font-family="Verdana" font-size="14" lengthAdjust="spacing" textLength="177.2354" x="541.17" y="579.3538">+Optional&lt;Boolean&gt; org</text><text fill="#000000" font-family="Verdana" font-size="14" lengthAdjust="spacing" textLength="192.0898" x="541.17" y="596.3684">+Optional&lt;Boolean&gt; email</text><text fill="#000000" font-family="Verdana" font-size="14" lengthAdjust="spacing" textLength="220.8145" x="541.17" y="613.3831">+Optional&lt;Boolean&gt; firstname</text><text fill="#000000" font-family="Verdana" font-size="14" lengthAdjust="spacing" textLength="218.3262" x="541.17" y="630.3977">+Optional&lt;Boolean&gt; lastname</text><text fill="#000000" font-family="Verdana" font-size="14" lengthAdjust="spacing" textLength="215.3662" x="541.17" y="647.4124">+Optional&lt;Boolean&gt; jsonUser</text><text fill="#000000" font-family="Verdana" font-size="14" lengthAdjust="spacing" textLength="216.46" x="541.17" y="664.427">+Optional&lt;Boolean&gt; orgname</text><text fill="#000000" font-family="Verdana" font-size="14" lengthAdjust="spacing" textLength="189.7998" x="541.17" y="681.4417">+Optional&lt;Boolean&gt; orgid</text><text fill="#000000" font-family="Verdana" font-size="14" lengthAdjust="spacing" textLength="272.8154" x="541.17" y="698.4563">+Optional&lt;Boolean&gt; jsonOrganization</text><line style="stroke:#000000;stroke-width:1;" x1="536.17" x2="818.9854" y1="705.3958" y2="705.3958"/></g><!--class RoleBasedAccessRule--><g class="entity" data-entity="RoleBasedAccessRule" data-source-line="35" data-uid="ent0005" id="entity_RoleBasedAccessRule"><rect fill="#FFFFFF" height="112.0586" rx="2.5" ry="2.5" style="stroke:#000000;stroke-width:1;" width="209.0391" x="963.06" y="533.28"/><ellipse cx="989.7411" cy="547.28" fill="#FFFFFF" rx="9" ry="9" style="stroke:#000000;stroke-width:1;"/><path d="M992.2142,553.4231 Q991.6331,553.7219 990.994,553.8713 Q990.3548,554.0207 989.6493,554.0207 Q987.1424,554.0207 985.8226,552.3689 Q984.5028,550.717 984.5028,547.5959 Q984.5028,544.4665 985.8226,542.8147 Q987.1424,541.1628 989.6493,541.1628 Q990.3548,541.1628 991.0023,541.3122 Q991.6497,541.4616 992.2142,541.7605 L992.2142,544.4831 Q991.5833,543.9021 990.9898,543.6323 Q990.3963,543.3625 989.7655,543.3625 Q988.4207,543.3625 987.7359,544.4292 Q987.0511,545.4958 987.0511,547.5959 Q987.0511,549.6877 987.7359,550.7544 Q988.4207,551.821 989.7655,551.821 Q990.3963,551.821 990.9898,551.5512 Q991.5833,551.2815 992.2142,550.7004 Z " fill="#000000"/><text fill="#000000" font-family="Verdana" font-size="14" lengthAdjust="spacing" textLength="150.6367" x="1004.7813" y="552.8479">RoleBasedAccessRule</text><line style="stroke:#000000;stroke-width:1;" x1="964.06" x2="1171.0991" y1="561.28" y2="561.28"/><text fill="#000000" font-family="Verdana" font-size="14" lengthAdjust="spacing" textLength="188.6924" x="969.06" y="579.3552">+List&lt;String&gt; interceptUrl</text><text fill="#000000" font-family="Verdana" font-size="14" lengthAdjust="spacing" textLength="138.1475" x="969.06" y="596.3698">+boolean forbidden</text><text fill="#000000" font-family="Verdana" font-size="14" lengthAdjust="spacing" textLength="152.7217" x="969.06" y="613.3845">+boolean anonymous</text><text fill="#000000" font-family="Verdana" font-size="14" lengthAdjust="spacing" textLength="197.0391" x="969.06" y="630.3991">+List&lt;String&gt; allowedRoles</text><line style="stroke:#000000;stroke-width:1;" x1="964.06" x2="1171.0991" y1="637.3386" y2="637.3386"/></g><!--class AccessLogFilterConfig--><g class="entity" data-entity="AccessLogFilterConfig" data-source-line="42" data-uid="ent0006" id="entity_AccessLogFilterConfig"><rect fill="#FFFFFF" height="112.0586" rx="2.5" ry="2.5" style="stroke:#000000;stroke-width:1;" width="180.2773" x="58.44" y="71.56"/><ellipse cx="71.44" cy="85.56" fill="#FFFFFF" rx="9" ry="9" style="stroke:#000000;stroke-width:1;"/><path d="M73.9131,91.7031 Q73.3321,92.0019 72.6929,92.1513 Q72.0538,92.3007 71.3482,92.3007 Q68.8414,92.3007 67.5215,90.6489 Q66.2017,88.997 66.2017,85.8759 Q66.2017,82.7465 67.5215,81.0947 Q68.8414,79.4428 71.3482,79.4428 Q72.0538,79.4428 72.7012,79.5922 Q73.3487,79.7416 73.9131,80.0405 L73.9131,82.7631 Q73.2823,82.1821 72.6888,81.9123 Q72.0953,81.6425 71.4644,81.6425 Q70.1197,81.6425 69.4349,82.7092 Q68.7501,83.7758 68.7501,85.8759 Q68.7501,87.9677 69.4349,89.0344 Q70.1197,90.101 71.4644,90.101 Q72.0953,90.101 72.6888,89.8312 Q73.2823,89.5615 73.9131,88.9804 Z " fill="#000000"/><text fill="#000000" font-family="Verdana" font-size="14" lengthAdjust="spacing" textLength="152.2773" x="83.44" y="91.1279">AccessLogFilterConfig</text><line style="stroke:#000000;stroke-width:1;" x1="59.44" x2="237.7173" y1="99.56" y2="99.56"/><text fill="#000000" font-family="Verdana" font-size="14" lengthAdjust="spacing" textLength="126.7793" x="64.44" y="117.6352">+boolean enabled</text><text fill="#000000" font-family="Verdana" font-size="14" lengthAdjust="spacing" textLength="150.3291" x="64.44" y="134.6498">+List&lt;Pattern&gt; trace</text><text fill="#000000" font-family="Verdana" font-size="14" lengthAdjust="spacing" textLength="158.1631" x="64.44" y="151.6645">+List&lt;Pattern&gt; debug</text><text fill="#000000" font-family="Verdana" font-size="14" lengthAdjust="spacing" textLength="140.916" x="64.44" y="168.6791">+List&lt;Pattern&gt; info</text><line style="stroke:#000000;stroke-width:1;" x1="59.44" x2="237.7173" y1="175.6186" y2="175.6186"/></g><!--class HttpRequestMdcConfigProperties--><g class="entity" data-entity="HttpRequestMdcConfigProperties" data-source-line="49" data-uid="ent0007" id="entity_HttpRequestMdcConfigProperties"><rect fill="#FFFFFF" height="231.1611" rx="2.5" ry="2.5" style="stroke:#000000;stroke-width:1;" width="258.46" x="323.35" y="12"/><ellipse cx="336.35" cy="26" fill="#FFFFFF" rx="9" ry="9" style="stroke:#000000;stroke-width:1;"/><path d="M338.8231,32.1431 Q338.2421,32.4419 337.6029,32.5913 Q336.9638,32.7407 336.2582,32.7407 Q333.7514,32.7407 332.4315,31.0889 Q331.1117,29.437 331.1117,26.3159 Q331.1117,23.1865 332.4315,21.5347 Q333.7514,19.8828 336.2582,19.8828 Q336.9638,19.8828 337.6112,20.0322 Q338.2587,20.1816 338.8231,20.4805 L338.8231,23.2031 Q338.1923,22.6221 337.5988,22.3523 Q337.0053,22.0825 336.3744,22.0825 Q335.0297,22.0825 334.3449,23.1492 Q333.6601,24.2158 333.6601,26.3159 Q333.6601,28.4077 334.3449,29.4744 Q335.0297,30.541 336.3744,30.541 Q337.0053,30.541 337.5988,30.2712 Q338.1923,30.0015 338.8231,29.4204 Z " fill="#000000"/><text fill="#000000" font-family="Verdana" font-size="14" lengthAdjust="spacing" textLength="230.46" x="348.35" y="31.5679">HttpRequestMdcConfigProperties</text><line style="stroke:#000000;stroke-width:1;" x1="324.35" x2="580.81" y1="40" y2="40"/><text fill="#000000" font-family="Verdana" font-size="14" lengthAdjust="spacing" textLength="84.1094" x="329.35" y="58.0752">+boolean id</text><text fill="#000000" font-family="Verdana" font-size="14" lengthAdjust="spacing" textLength="154.8203" x="329.35" y="75.0898">+boolean remoteAddr</text><text fill="#000000" font-family="Verdana" font-size="14" lengthAdjust="spacing" textLength="153.6582" x="329.35" y="92.1045">+boolean remoteHost</text><text fill="#000000" font-family="Verdana" font-size="14" lengthAdjust="spacing" textLength="125.0977" x="329.35" y="109.1191">+boolean method</text><text fill="#000000" font-family="Verdana" font-size="14" lengthAdjust="spacing" textLength="90.2207" x="329.35" y="126.1338">+boolean url</text><text fill="#000000" font-family="Verdana" font-size="14" lengthAdjust="spacing" textLength="152.1406" x="329.35" y="143.1484">+boolean parameters</text><text fill="#000000" font-family="Verdana" font-size="14" lengthAdjust="spacing" textLength="154.2119" x="329.35" y="160.1631">+boolean queryString</text><text fill="#000000" font-family="Verdana" font-size="14" lengthAdjust="spacing" textLength="137.5801" x="329.35" y="177.1777">+boolean sessionId</text><text fill="#000000" font-family="Verdana" font-size="14" lengthAdjust="spacing" textLength="123.5938" x="329.35" y="194.1924">+boolean cookies</text><text fill="#000000" font-family="Verdana" font-size="14" lengthAdjust="spacing" textLength="127.4834" x="329.35" y="211.207">+boolean headers</text><text fill="#000000" font-family="Verdana" font-size="14" lengthAdjust="spacing" textLength="174.4326" x="329.35" y="228.2217">+Pattern headersPattern</text><line style="stroke:#000000;stroke-width:1;" x1="324.35" x2="580.81" y1="235.1611" y2="235.1611"/></g><!--class AuthenticationMdcConfigProperties--><g class="entity" data-entity="AuthenticationMdcConfigProperties" data-source-line="63" data-uid="ent0008" id="entity_AuthenticationMdcConfigProperties"><rect fill="#FFFFFF" height="112.0586" rx="2.5" ry="2.5" style="stroke:#000000;stroke-width:1;" width="273.1572" x="12" y="298.17"/><ellipse cx="25" cy="312.17" fill="#FFFFFF" rx="9" ry="9" style="stroke:#000000;stroke-width:1;"/><path d="M27.4731,318.3131 Q26.8921,318.6119 26.2529,318.7613 Q25.6138,318.9107 24.9082,318.9107 Q22.4014,318.9107 21.0815,317.2589 Q19.7617,315.607 19.7617,312.4859 Q19.7617,309.3565 21.0815,307.7047 Q22.4014,306.0528 24.9082,306.0528 Q25.6138,306.0528 26.2612,306.2022 Q26.9087,306.3516 27.4731,306.6505 L27.4731,309.3731 Q26.8423,308.7921 26.2488,308.5223 Q25.6553,308.2525 25.0244,308.2525 Q23.6797,308.2525 22.9949,309.3192 Q22.3101,310.3858 22.3101,312.4859 Q22.3101,314.5777 22.9949,315.6444 Q23.6797,316.711 25.0244,316.711 Q25.6553,316.711 26.2488,316.4412 Q26.8423,316.1715 27.4731,315.5904 Z " fill="#000000"/><text fill="#000000" font-family="Verdana" font-size="14" lengthAdjust="spacing" textLength="245.1572" x="37" y="317.7379">AuthenticationMdcConfigProperties</text><line style="stroke:#000000;stroke-width:1;" x1="13" x2="284.1572" y1="326.17" y2="326.17"/><text fill="#000000" font-family="Verdana" font-size="14" lengthAdjust="spacing" textLength="84.1094" x="18" y="344.2452">+boolean id</text><text fill="#000000" font-family="Verdana" font-size="14" lengthAdjust="spacing" textLength="105.4922" x="18" y="361.2598">+boolean roles</text><text fill="#000000" font-family="Verdana" font-size="14" lengthAdjust="spacing" textLength="94.7393" x="18" y="378.2745">+boolean org</text><text fill="#000000" font-family="Verdana" font-size="14" lengthAdjust="spacing" textLength="154.9229" x="18" y="395.2891">+boolean authMethod</text><line style="stroke:#000000;stroke-width:1;" x1="13" x2="284.1572" y1="402.2286" y2="402.2286"/></g><!--reverse link GatewayConfigProperties to HeaderMappings--><g class="link" data-entity-1="GatewayConfigProperties" data-entity-2="HeaderMappings" data-source-line="70" data-uid="lnk9" id="link_GatewayConfigProperties_HeaderMappings"><path codeLine="70" d="M677.6,195.74 C677.6,265.2 677.6,373.46 677.6,465.05" fill="none" id="GatewayConfigProperties-backto-HeaderMappings" style="stroke:#000000;stroke-width:1;"/><polygon fill="#000000" points="677.6,183.74,673.6,189.74,677.6,195.74,681.6,189.74,677.6,183.74" style="stroke:#000000;stroke-width:1;"/><text fill="#000000" font-family="Verdana" font-size="13" lengthAdjust="spacing" textLength="98.6235" x="578.6" y="321.4598">defaultHeaders</text><text fill="#000000" font-family="Verdana" font-size="13" lengthAdjust="spacing" textLength="8.2646" x="651.0227" y="203.8153">1</text><text fill="#000000" font-family="Verdana" font-size="13" lengthAdjust="spacing" textLength="8.2646" x="669.3416" y="454.2942">1</text></g><!--reverse link GatewayConfigProperties to RoleBasedAccessRule--><g class="link" data-entity-1="GatewayConfigProperties" data-entity-2="RoleBasedAccessRule" data-source-line="71" data-uid="lnk10" id="link_GatewayConfigProperties_RoleBasedAccessRule"><path codeLine="71" d="M1009.56,195.74 C1009.56,284.42 1009.56,443.94 1009.56,532.83" fill="none" id="GatewayConfigProperties-backto-RoleBasedAccessRule" style="stroke:#000000;stroke-width:1;"/><polygon fill="#000000" points="1009.56,183.74,1005.56,189.74,1009.56,195.74,1013.56,189.74,1009.56,183.74" style="stroke:#000000;stroke-width:1;"/><text fill="#000000" font-family="Verdana" font-size="13" lengthAdjust="spacing" textLength="118.1045" x="1010.56" y="355.3498">globalAccessRules</text><text fill="#000000" font-family="Verdana" font-size="13" lengthAdjust="spacing" textLength="8.2646" x="1021.3172" y="204.616">1</text><text fill="#000000" font-family="Verdana" font-size="13" lengthAdjust="spacing" textLength="8.2646" x="993.2439" y="522.3563">*</text></g><!--reverse link GatewayConfigProperties to Service--><g class="link" data-entity-1="GatewayConfigProperties" data-entity-2="Service" data-source-line="72" data-uid="lnk11" id="link_GatewayConfigProperties_Service"><path codeLine="72" d="M843.58,195.89 C843.58,233.51 843.58,270.47 843.58,306.23" fill="none" id="GatewayConfigProperties-backto-Service" style="stroke:#000000;stroke-width:1;"/><polygon fill="#000000" points="843.58,183.89,839.58,189.89,843.58,195.89,847.58,189.89,843.58,183.89" style="stroke:#000000;stroke-width:1;"/><text fill="#000000" font-family="Verdana" font-size="13" lengthAdjust="spacing" textLength="52.6157" x="790.58" y="242.1298">services</text><text fill="#000000" font-family="Verdana" font-size="13" lengthAdjust="spacing" textLength="8.2646" x="835.1084" y="204.7842">1</text><text fill="#000000" font-family="Verdana" font-size="13" lengthAdjust="spacing" textLength="8.2646" x="834.9887" y="295.8684">*</text></g><!--reverse link Service to HeaderMappings--><g class="link" data-entity-1="Service" data-entity-2="HeaderMappings" data-source-line="73" data-uid="lnk12" id="link_Service_HeaderMappings"><path codeLine="73" d="M754.19,414.06 C754.19,432.59 754.19,442.73 754.19,465.2" fill="none" id="Service-backto-HeaderMappings" style="stroke:#000000;stroke-width:1;"/><polygon fill="#000000" points="754.19,402.06,750.19,408.06,754.19,414.06,758.19,408.06,754.19,402.06" style="stroke:#000000;stroke-width:1;"/><text fill="#000000" font-family="Verdana" font-size="13" lengthAdjust="spacing" textLength="51.9429" x="702.19" y="430.6998">headers</text><text fill="#000000" font-family="Verdana" font-size="13" lengthAdjust="spacing" textLength="8.2646" x="733.6593" y="422.6236">1</text><text fill="#000000" font-family="Verdana" font-size="13" lengthAdjust="spacing" textLength="25.9873" x="733.5307" y="454.4543">0..1</text></g><!--reverse link Service to RoleBasedAccessRule--><g class="link" data-entity-1="Service" data-entity-2="RoleBasedAccessRule" data-source-line="74" data-uid="lnk13" id="link_Service_RoleBasedAccessRule"><path codeLine="74" d="M980.91,414.06 C980.91,451.92 980.91,492.88 980.91,532.82" fill="none" id="Service-backto-RoleBasedAccessRule" style="stroke:#000000;stroke-width:1;"/><polygon fill="#000000" points="980.91,402.06,976.91,408.06,980.91,414.06,984.91,408.06,980.91,402.06" style="stroke:#000000;stroke-width:1;"/><text fill="#000000" font-family="Verdana" font-size="13" lengthAdjust="spacing" textLength="77.9937" x="902.91" y="464.5098">accessRules</text><text fill="#000000" font-family="Verdana" font-size="13" lengthAdjust="spacing" textLength="8.2646" x="990.8448" y="422.6236">1</text><text fill="#000000" font-family="Verdana" font-size="13" lengthAdjust="spacing" textLength="8.2646" x="961.3099" y="522.7424">*</text></g><!--SRC=[bLHHRzem47xdLtWyTclLFI1Dg4AYaxOY5RK2yGCkyH4y75zcNzRHQVzz9ed1WBDrJuc_x_pTvxFltl46InIL1cK6RgjC1HPAaMjmRifiLLOppd8oI_MAuZOAqSeWxoeKP7b34M58eiDAV1f5e0MptOEZqM3GY8klmFW2kyzargfujbIXPOLE_1e8yNuErTtIPpV51_6e77UBoKHOqkWyNVcbsuS-84Yq0H4Irr1hRj4ceDc_yDlkmQ6SvZawjwWrJaIXAGDzHDnvwYNQ7ohtaQxzSOFVmNv7jNPNYvbWi0Lomj7cBLOWCd78SIRKf7ggM941VNTFNWVCH5IMVkxILErzAzdF6IWnpJPbJbDaYpI19IYTfjRAEkxFva_x5_QR8xFoRdljz6_rPD_vzwfFjW2ZNc7F7SkUkA2szl5B5CemsXmhNjdcq5ahBDPaCoKbcXW4GsPNKkqkP41hUa6ve9ERRpC_Kl55QP-cRPBMH9140vb6UH1y1lQH_c1i8STBM69M5vUmCckANXnpjS3lDJgUoppTcy50MzYmibWIurHAUua-aECOBT5FZ9FTzMaDcvc1t7LDGBqjkslh5iFELyhVt-n4C2VQAZpP7lLXT_e0TSke_BKVYuPLthoC_wr4Q9q0T0rpU0jUVDvMm2Vi6uF3ZqDnTNtTVC_cmFXyoFrJusgOVDJZn0HyYrQOVUFZN0pG8UpsvYRbF5p2HNolnNWo_W40]--></g></svg>